<svg width="4047" height="1073" xmlns="http://www.w3.org/2000/svg" xmlns:xlink="http://www.w3.org/1999/xlink" overflow="hidden"><defs><clipPath id="clip0"><rect x="385" y="334" width="4047" height="1073"/></clipPath><clipPath id="clip1"><rect x="471" y="424" width="550" height="723"/></clipPath><clipPath id="clip2"><rect x="471" y="424" width="550" height="723"/></clipPath><clipPath id="clip3"><rect x="471" y="424" width="550" height="723"/></clipPath><clipPath id="clip4"><rect x="471" y="424" width="550" height="723"/></clipPath></defs><g clip-path="url(#clip0)" transform="translate(-385 -334)"><g clip-path="url(#clip1)"><g clip-path="url(#clip2)"><g clip-path="url(#clip3)"><g clip-path="url(#clip4)"><path d="M1268.41 320.954 1816.92 320.954 1806.22 380.077 1278.66 380.077 1268.41 320.954Z" fill="#F7BC0D" fill-rule="evenodd" fill-opacity="1" transform="matrix(1 0 0 1.07337 -795.917 202.62)"/><path d="M1352.21 418.12 1435.76 877.481 1374.37 878.266 1286.22 419.291 1352.21 418.12Z" fill="#F7BC0D" fill-rule="evenodd" fill-opacity="1" transform="matrix(1 0 0 1.07337 -795.917 202.62)"/><path d="M1652.54 877.431 1733.52 418.158 1799.54 418.993 1718.03 877.61 1652.54 877.431Z" fill="#F7BC0D" fill-rule="evenodd" fill-opacity="1" transform="matrix(1 0 0 1.07337 -795.917 202.62)"/><path d="M1375.73 818.78 1714.57 818.78 1714.57 877.406 1375.73 877.406Z" fill="#F7BC0D" fill-rule="nonzero" fill-opacity="1" transform="matrix(1 0 0 1.07337 -795.917 202.62)"/><path d="M1470 418.158 1532.47 771.015 1468.58 771.511 1402.98 418.054 1470 418.158Z" fill="#F7BC0D" fill-rule="evenodd" fill-opacity="1" transform="matrix(1 0 0 1.07337 -795.917 202.62)"/><path d="M1554.35 770.249 1616.18 418.9 1682.5 419.21 1620.43 770.518 1554.35 770.249Z" fill="#F7BC0D" fill-rule="evenodd" fill-opacity="1" transform="matrix(1 0 0 1.07337 -795.917 202.62)"/><path d="M1417.46 208.67 1670.85 208.67 1670.85 267.296 1417.46 267.296Z" fill="#F7BC0D" fill-rule="nonzero" fill-opacity="1" transform="matrix(1 0 0 1.07337 -795.917 202.62)"/><path d="M1470.62 711.464 1617.69 711.464 1617.69 770.587 1470.62 770.587Z" fill="#F7BC0D" fill-rule="nonzero" fill-opacity="1" transform="matrix(1 0 0 1.07337 -795.917 202.62)"/></g></g></g></g><text fill="#F7BC0D" fill-opacity="1" font-family="Montserrat,Montserrat_MSFontService,sans-serif" font-style="normal" font-variant="normal" font-weight="700" font-stretch="normal" font-size="504" text-anchor="start" direction="ltr" writing-mode="lr-tb" unicode-bidi="normal" text-decoration="none" transform="matrix(1 0 0 1 1143.07 979)">BIN−ANCE</text></g></svg>